<?xml version="1.0" encoding="utf-8"?>
<!-- Generator: Adobe Illustrator 26.5.0, SVG Export Plug-In . SVG Version: 6.00 Build 0)  -->
<svg version="1.1" xmlns="http://www.w3.org/2000/svg" xmlns:xlink="http://www.w3.org/1999/xlink" x="0px" y="0px"
	 viewBox="0 0 633.6 155.5" style="enable-background:new 0 0 633.6 155.5;" xml:space="preserve">
<style type="text/css">
	.st0{fill:#FFFFFF;}
	.st1{fill:#28262F;}
</style>
<g id="Layer_1">
	<g>
		<rect x="1.5" y="6.9" class="st1" width="29.1" height="145.6"/>
		<rect x="51.1" y="6.9" class="st1" width="29.1" height="145.6"/>
		<rect x="100.7" y="6.9" class="st1" width="29.1" height="72.7"/>
		<rect x="150.2" y="6.9" class="st1" width="29.1" height="145.6"/>
		<polygon class="st1" points="234.3,40.8 276.5,40.8 276.5,67.9 284.7,67.9 284.7,6.9 276.5,6.9 276.5,33 234.3,33 234.3,6.9 
			226.1,6.9 226.1,67.9 234.3,67.9 		"/>
		<path class="st1" d="M318,69c9.9,0,17.6-5.6,20.3-14.7l0.2-0.7l-7.8-1.9l-0.2,0.7c-1.3,5.5-6.3,9.2-12.4,9.2
			c-8.6,0-13.7-5.1-14-14h34.9v-3.2c0-14.2-8.4-23.4-21.3-23.4c-12.6,0-21.7,10.2-21.7,24.1C295.8,59.5,304.7,69,318,69z
			 M317.6,28.6c5.9,0,12.4,3.2,13.1,12.2h-26.4C305,33.8,310.6,28.6,317.6,28.6z"/>
		<polygon class="st1" points="367.3,67.9 377.5,31 387.6,67.9 397.9,67.9 411.9,22.2 403.2,22.2 392.9,59.2 382.6,22.2 372.4,22.2 
			362.1,59.2 351.9,22.7 351.8,22.2 343.1,22.2 357,67.9 		"/>
		<polygon class="st1" points="435.2,67.9 435.2,22.2 419,22.2 419,29.3 427.2,29.3 427.2,67.9 		"/>
		<path class="st1" d="M431.1,12.5c3.2,0,5.5-2.4,5.5-5.7c0-3.2-2.4-5.6-5.5-5.6c-3.1,0-5.5,2.4-5.5,5.6
			C425.7,10.1,428,12.5,431.1,12.5z"/>
		<path class="st1" d="M461.6,6.9H454v15.3h-8.6v7.1h8.2v25.3c0,8.7,4.8,13.3,13.9,13.3h6.9v-7.3h-7c-4.2,0-5.8-1.7-5.8-6.1V29.3
			h13.4v-7.1h-13.4V6.9z"/>
		<path class="st1" d="M490.6,54.6c0,8.7,4.8,13.3,13.9,13.3h6.9v-7.3h-7c-4.2,0-5.8-1.7-5.8-6.1V29.3H512v-7.1h-13.4V6.9h-7.6v15.3
			h-8.6v7.1h8.2V54.6z"/>
		<polygon class="st1" points="255.4,144.5 239.1,92.5 238.9,92.1 226.1,92.1 226.1,153.1 234,153.1 234,102.1 250.1,152.6 
			250.2,153.1 260.6,153.1 276.8,102.1 276.8,153.1 284.7,153.1 284.7,92.1 271.9,92.1 		"/>
		<path class="st1" d="M331.8,113.6c-1.8-2.6-6.3-7.3-14.6-7.3c-12.6,0-21.4,9.9-21.4,24.1c0,14.1,9,23.9,21.9,23.9
			c5.9,0,10.8-2.4,14.1-7v5.9h6.2h1h0.8v-8.7v-0.6v-36.4h-8.1V113.6z M318.1,146.8c-8.3,0-14.1-6.7-14.1-16.3
			c0-9.6,5.9-16.6,14-16.6c8.4,0,14.1,6.7,14.1,16.6C332.1,139.9,326.2,146.8,318.1,146.8z"/>
		<path class="st1" d="M366.2,92.1h-7.6v15.3H350v7.1h8.2v25.3c0,8.7,4.8,13.3,13.9,13.3h6.9v-7.3h-7c-4.2,0-5.8-1.7-5.8-6.1v-25.2
			h13.4v-7.1h-13.4V92.1z"/>
		<path class="st1" d="M403.3,92.1h-7.6v15.3h-8.6v7.1h8.2v25.3c0,8.7,4.8,13.3,13.9,13.3h6.9v-7.3h-7c-4.2,0-5.8-1.7-5.8-6.1v-25.2
			h13.4v-7.1h-13.4V92.1z"/>
		<path class="st1" d="M448.5,106.3c-6.6,0-11.1,3.2-13.2,6.5V91.9h-8v61.2h8v-27.6c0-6.4,5.1-11.5,11.6-11.5
			c6.1,0,10.6,4.7,10.6,11v28.1h8v-28.6C465.6,113.8,458.6,106.3,448.5,106.3z"/>
		<path class="st1" d="M496.8,106.3c-12.6,0-21.7,10.2-21.7,24.1c0,14.2,8.9,23.8,22.2,23.8c9.9,0,17.6-5.6,20.3-14.7l0.2-0.7
			l-7.8-1.9l-0.2,0.7c-1.3,5.5-6.3,9.2-12.4,9.2c-8.6,0-13.7-5.1-14-14h34.9v-3.2C518.1,115.5,509.7,106.3,496.8,106.3z M483.5,126
			c0.8-7,6.4-12.2,13.3-12.2c5.9,0,12.4,3.2,13.1,12.2H483.5z"/>
		<polygon class="st1" points="572.1,144.4 561.8,107.4 551.6,107.4 541.3,144.4 531.1,107.9 531,107.4 522.3,107.4 536.3,153.1 
			546.5,153.1 556.7,116.2 566.9,153.1 577.1,153.1 591.1,107.4 582.5,107.4 		"/>
		<path class="st1" d="M616.2,125.6c-6.3-1.2-10.1-2.1-10.1-6.3c0-3.5,3.3-5.8,8.2-5.8c5.5,0,9.2,3,9.7,7.7l0.1,0.8l7.1-2.1
			l-0.1-0.6c-1.1-9-9.3-13.1-16.5-13.1c-9.7,0-16.4,5.4-16.4,13.1c0,10.1,8.1,11.8,15.2,13.2c5.8,1.2,10.7,2.2,10.7,7.3
			c0,4.3-3.6,7-9.4,7c-4.5,0-9.9-1.5-10.5-8.4l-0.1-0.8l-7.4,1.9l0.1,0.6c1.1,8.6,7.8,14,17.6,14c10.5,0,17.6-5.9,17.6-14.7
			C632.1,128.7,623.3,127,616.2,125.6z"/>
	</g>
</g>
<g id="Layer_2">
</g>
</svg>
